<svg xmlns="http://www.w3.org/2000/svg" viewBox="0 0 106.77 151.31"><defs><style>.cls-1{fill:#425925;}.cls-2{fill:#fff;}.cls-3{fill:#ffbd2b;}.cls-4{fill:#fd8608;}.cls-5{fill:#f53e30;}.cls-6{fill:#582718;}</style></defs><g id="OBJECTS"><path class="cls-1" d="M250,297.68s-53.39-56.52-53.39-97.93a53.39,53.39,0,0,1,106.78,0C303.39,241.16,250,297.68,250,297.68Z" transform="translate(-196.61 -146.36)"/><path class="cls-2" d="M297.38,199.75A47.38,47.38,0,1,1,250,152.37,47.38,47.38,0,0,1,297.38,199.75Z" transform="translate(-196.61 -146.36)"/><path class="cls-3" d="M290,199.75a40,40,0,1,1-40-40A40,40,0,0,1,290,199.75Z" transform="translate(-196.61 -146.36)"/><path class="cls-4" d="M282.17,190.73a3.81,3.81,0,0,0-.59.05c-1.63.28-19.77,5.82-23.39,6.93a2,2,0,0,0,0,3.9c3.62,1.11,21.76,6.65,23.39,6.93a3.81,3.81,0,0,0,.59.05,5.5,5.5,0,0,0,4.28-2.72,11,11,0,0,0,1.73-6.21C288.18,194.32,285.07,190.73,282.17,190.73Z" transform="translate(-196.61 -146.36)"/><path class="cls-4" d="M255.46,195.5a2.08,2.08,0,0,0,1.45.6,2,2,0,0,0,1-.24c3.34-1.78,20.09-10.69,21.44-11.65a4.31,4.31,0,0,0,1.67-3.27,10.11,10.11,0,0,0-3.29-7.67,10.38,10.38,0,0,0-7.1-3.31,4.55,4.55,0,0,0-3.84,1.69c-1,1.36-9.87,18.1-11.64,21.44A2.06,2.06,0,0,0,255.46,195.5Z" transform="translate(-196.61 -146.36)"/><path class="cls-4" d="M253.2,192.9c1.11-3.62,6.65-21.76,6.93-23.39A4.32,4.32,0,0,0,259,166a10.08,10.08,0,0,0-7.66-3.09v31.41A2,2,0,0,0,253.2,192.9Z" transform="translate(-196.61 -146.36)"/><path class="cls-4" d="M253.38,206.6a2,2,0,0,0-1.95-1.44h-.09v31.41h.09a10.1,10.1,0,0,0,7.75-3.1,4.3,4.3,0,0,0,1.13-3.49C260,228.36,254.49,210.22,253.38,206.6Z" transform="translate(-196.61 -146.36)"/><path class="cls-4" d="M279.44,215.16c-1.36-1-18.1-9.87-21.44-11.64a2,2,0,0,0-2.77,2.76c1.78,3.34,10.69,20.09,11.65,21.44a4.56,4.56,0,0,0,3.84,1.7h0a10.41,10.41,0,0,0,7.1-3.32,10.08,10.08,0,0,0,3.29-7.66A4.35,4.35,0,0,0,279.44,215.16Z" transform="translate(-196.61 -146.36)"/><path class="cls-5" d="M250,239.72a40,40,0,0,1,0-79.93Z" transform="translate(-196.61 -146.36)"/><path class="cls-2" d="M250,152.37c-.63,0-1.26,0-1.88,0v94.67c.62,0,1.25,0,1.88,0s1.26,0,1.88,0V152.42C251.26,152.39,250.63,152.37,250,152.37Z" transform="translate(-196.61 -146.36)"/><path class="cls-6" d="M218.62,202a2.35,2.35,0,1,1,0-4.7c1.3,0,4.08,1.05,4.08,2.35S219.92,202,218.62,202Z" transform="translate(-196.61 -146.36)"/><path class="cls-6" d="M239.14,168.67a2.35,2.35,0,0,1,4.46-1.51c.42,1.23.31,4.2-.92,4.62S239.56,169.9,239.14,168.67Z" transform="translate(-196.61 -146.36)"/><path class="cls-6" d="M223.36,179.86a2.36,2.36,0,0,1,3.18-3.48c1,.88,2.3,3.54,1.42,4.5S224.32,180.74,223.36,179.86Z" transform="translate(-196.61 -146.36)"/><path class="cls-6" d="M237.94,191.66a2.35,2.35,0,0,1,2.33-4.09c1.13.64,3,2.93,2.38,4.06S239.07,192.3,237.94,191.66Z" transform="translate(-196.61 -146.36)"/><path class="cls-6" d="M239.14,230.83a2.35,2.35,0,0,0,4.46,1.51c.42-1.23.31-4.2-.92-4.62S239.56,229.6,239.14,230.83Z" transform="translate(-196.61 -146.36)"/><path class="cls-6" d="M223.36,219.64a2.36,2.36,0,0,0,3.18,3.48c1-.88,2.3-3.54,1.42-4.5S224.32,218.77,223.36,219.64Z" transform="translate(-196.61 -146.36)"/><path class="cls-6" d="M237.94,207.84a2.35,2.35,0,0,0,2.33,4.09c1.13-.64,3-2.93,2.38-4.06S239.07,207.2,237.94,207.84Z" transform="translate(-196.61 -146.36)"/><path class="cls-2" d="M250,195.35a4.4,4.4,0,1,0,4.4,4.4A4.41,4.41,0,0,0,250,195.35Z" transform="translate(-196.61 -146.36)"/></g></svg>